<svg width="215" height="21" viewBox="0 0 215 21" fill="none" xmlns="http://www.w3.org/2000/svg">
<path d="M12.9366 1.93V4.348H8.12658V20H5.16258V4.348H0.326576V1.93H12.9366ZM23.7124 20.234C22.3604 20.234 21.1384 19.9307 20.0464 19.324C18.9544 18.7 18.0964 17.8333 17.4724 16.724C16.8484 15.5973 16.5364 14.2973 16.5364 12.824C16.5364 11.368 16.857 10.0767 17.4984 8.95C18.1397 7.82333 19.015 6.95667 20.1244 6.35C21.2337 5.74333 22.473 5.44 23.8424 5.44C25.2117 5.44 26.451 5.74333 27.5604 6.35C28.6697 6.95667 29.545 7.82333 30.1864 8.95C30.8277 10.0767 31.1484 11.368 31.1484 12.824C31.1484 14.28 30.819 15.5713 30.1604 16.698C29.5017 17.8247 28.6004 18.7 27.4564 19.324C26.3297 19.9307 25.0817 20.234 23.7124 20.234ZM23.7124 17.66C24.475 17.66 25.1857 17.478 25.8444 17.114C26.5204 16.75 27.0664 16.204 27.4824 15.476C27.8984 14.748 28.1064 13.864 28.1064 12.824C28.1064 11.784 27.907 10.9087 27.5084 10.198C27.1097 9.47 26.581 8.924 25.9224 8.56C25.2637 8.196 24.553 8.014 23.7904 8.014C23.0277 8.014 22.317 8.196 21.6584 8.56C21.017 8.924 20.5057 9.47 20.1244 10.198C19.743 10.9087 19.5524 11.784 19.5524 12.824C19.5524 14.3667 19.9424 15.5627 20.7224 16.412C21.5197 17.244 22.5164 17.66 23.7124 17.66ZM42.8664 5.44C43.9931 5.44 44.9984 5.674 45.8824 6.142C46.7838 6.61 47.4858 7.30333 47.9884 8.222C48.4911 9.14067 48.7424 10.25 48.7424 11.55V20H45.8044V11.992C45.8044 10.7093 45.4838 9.73 44.8424 9.054C44.2011 8.36067 43.3258 8.014 42.2164 8.014C41.1071 8.014 40.2231 8.36067 39.5644 9.054C38.9231 9.73 38.6024 10.7093 38.6024 11.992V20H35.6384V5.674H38.6024V7.312C39.0878 6.72267 39.7031 6.26333 40.4484 5.934C41.2111 5.60467 42.0171 5.44 42.8664 5.44ZM53.0952 12.772C53.0952 11.3333 53.3899 10.0593 53.9792 8.95C54.5859 7.84067 55.4005 6.98267 56.4232 6.376C57.4632 5.752 58.6072 5.44 59.8552 5.44C60.9819 5.44 61.9612 5.66533 62.7932 6.116C63.6425 6.54933 64.3185 7.09533 64.8212 7.754V5.674H67.8112V20H64.8212V17.868C64.3185 18.544 63.6339 19.1073 62.7672 19.558C61.9005 20.0087 60.9125 20.234 59.8032 20.234C58.5725 20.234 57.4459 19.922 56.4232 19.298C55.4005 18.6567 54.5859 17.7727 53.9792 16.646C53.3899 15.502 53.0952 14.2107 53.0952 12.772ZM64.8212 12.824C64.8212 11.836 64.6132 10.978 64.1972 10.25C63.7985 9.522 63.2699 8.96733 62.6112 8.586C61.9525 8.20467 61.2419 8.014 60.4792 8.014C59.7165 8.014 59.0059 8.20467 58.3472 8.586C57.6885 8.95 57.1512 9.496 56.7352 10.224C56.3365 10.9347 56.1372 11.784 56.1372 12.772C56.1372 13.76 56.3365 14.6267 56.7352 15.372C57.1512 16.1173 57.6885 16.6893 58.3472 17.088C59.0232 17.4693 59.7339 17.66 60.4792 17.66C61.2419 17.66 61.9525 17.4693 62.6112 17.088C63.2699 16.7067 63.7985 16.152 64.1972 15.424C64.6132 14.6787 64.8212 13.812 64.8212 12.824ZM90.6063 5.44C91.733 5.44 92.7383 5.674 93.6223 6.142C94.5236 6.61 95.2256 7.30333 95.7283 8.222C96.2483 9.14067 96.5083 10.25 96.5083 11.55V20H93.5703V11.992C93.5703 10.7093 93.2496 9.73 92.6083 9.054C91.967 8.36067 91.0916 8.014 89.9823 8.014C88.873 8.014 87.989 8.36067 87.3303 9.054C86.689 9.73 86.3683 10.7093 86.3683 11.992V20H83.4303V11.992C83.4303 10.7093 83.1096 9.73 82.4683 9.054C81.827 8.36067 80.9516 8.014 79.8423 8.014C78.733 8.014 77.849 8.36067 77.1903 9.054C76.549 9.73 76.2283 10.7093 76.2283 11.992V20H73.2643V5.674H76.2283V7.312C76.7136 6.72267 77.329 6.26333 78.0743 5.934C78.8196 5.60467 79.617 5.44 80.4663 5.44C81.6103 5.44 82.633 5.68267 83.5343 6.168C84.4356 6.65333 85.129 7.35533 85.6143 8.274C86.0476 7.40733 86.7236 6.72267 87.6423 6.22C88.561 5.7 89.549 5.44 90.6063 5.44ZM108.054 20.234C106.702 20.234 105.48 19.9307 104.388 19.324C103.296 18.7 102.438 17.8333 101.814 16.724C101.19 15.5973 100.878 14.2973 100.878 12.824C100.878 11.368 101.199 10.0767 101.84 8.95C102.481 7.82333 103.357 6.95667 104.466 6.35C105.575 5.74333 106.815 5.44 108.184 5.44C109.553 5.44 110.793 5.74333 111.902 6.35C113.011 6.95667 113.887 7.82333 114.528 8.95C115.169 10.0767 115.49 11.368 115.49 12.824C115.49 14.28 115.161 15.5713 114.502 16.698C113.843 17.8247 112.942 18.7 111.798 19.324C110.671 19.9307 109.423 20.234 108.054 20.234ZM108.054 17.66C108.817 17.66 109.527 17.478 110.186 17.114C110.862 16.75 111.408 16.204 111.824 15.476C112.24 14.748 112.448 13.864 112.448 12.824C112.448 11.784 112.249 10.9087 111.85 10.198C111.451 9.47 110.923 8.924 110.264 8.56C109.605 8.196 108.895 8.014 108.132 8.014C107.369 8.014 106.659 8.196 106 8.56C105.359 8.924 104.847 9.47 104.466 10.198C104.085 10.9087 103.894 11.784 103.894 12.824C103.894 14.3667 104.284 15.5627 105.064 16.412C105.861 17.244 106.858 17.66 108.054 17.66ZM118.992 12.772C118.992 11.3333 119.287 10.0593 119.876 8.95C120.483 7.84067 121.297 6.98267 122.32 6.376C123.36 5.752 124.513 5.44 125.778 5.44C126.714 5.44 127.633 5.648 128.534 6.064C129.453 6.46267 130.181 7 130.718 7.676V0.76H133.708V20H130.718V17.842C130.233 18.5353 129.557 19.1073 128.69 19.558C127.841 20.0087 126.861 20.234 125.752 20.234C124.504 20.234 123.36 19.922 122.32 19.298C121.297 18.6567 120.483 17.7727 119.876 16.646C119.287 15.502 118.992 14.2107 118.992 12.772ZM130.718 12.824C130.718 11.836 130.51 10.978 130.094 10.25C129.695 9.522 129.167 8.96733 128.508 8.586C127.849 8.20467 127.139 8.014 126.376 8.014C125.613 8.014 124.903 8.20467 124.244 8.586C123.585 8.95 123.048 9.496 122.632 10.224C122.233 10.9347 122.034 11.784 122.034 12.772C122.034 13.76 122.233 14.6267 122.632 15.372C123.048 16.1173 123.585 16.6893 124.244 17.088C124.92 17.4693 125.631 17.66 126.376 17.66C127.139 17.66 127.849 17.4693 128.508 17.088C129.167 16.7067 129.695 16.152 130.094 15.424C130.51 14.6787 130.718 13.812 130.718 12.824ZM138.173 12.772C138.173 11.3333 138.468 10.0593 139.057 8.95C139.664 7.84067 140.478 6.98267 141.501 6.376C142.541 5.752 143.685 5.44 144.933 5.44C146.06 5.44 147.039 5.66533 147.871 6.116C148.72 6.54933 149.396 7.09533 149.899 7.754V5.674H152.889V20H149.899V17.868C149.396 18.544 148.712 19.1073 147.845 19.558C146.978 20.0087 145.99 20.234 144.881 20.234C143.65 20.234 142.524 19.922 141.501 19.298C140.478 18.6567 139.664 17.7727 139.057 16.646C138.468 15.502 138.173 14.2107 138.173 12.772ZM149.899 12.824C149.899 11.836 149.691 10.978 149.275 10.25C148.876 9.522 148.348 8.96733 147.689 8.586C147.03 8.20467 146.32 8.014 145.557 8.014C144.794 8.014 144.084 8.20467 143.425 8.586C142.766 8.95 142.229 9.496 141.813 10.224C141.414 10.9347 141.215 11.784 141.215 12.772C141.215 13.76 141.414 14.6267 141.813 15.372C142.229 16.1173 142.766 16.6893 143.425 17.088C144.101 17.4693 144.812 17.66 145.557 17.66C146.32 17.66 147.03 17.4693 147.689 17.088C148.348 16.7067 148.876 16.152 149.275 15.424C149.691 14.6787 149.899 13.812 149.899 12.824Z" fill="#060606"/>
<path d="M157.51 12.85C157.51 11.3767 157.805 10.094 158.394 9.002C158.984 7.89267 159.798 7.03467 160.838 6.428C161.896 5.82133 163.1 5.518 164.452 5.518C166.203 5.518 167.642 5.94267 168.768 6.792C169.912 7.64133 170.666 8.82 171.03 10.328H168.482C168.24 9.46133 167.763 8.77667 167.052 8.274C166.359 7.77133 165.492 7.52 164.452 7.52C163.1 7.52 162.008 7.988 161.176 8.924C160.344 9.84267 159.928 11.1513 159.928 12.85C159.928 14.566 160.344 15.892 161.176 16.828C162.008 17.764 163.1 18.232 164.452 18.232C165.492 18.232 166.359 17.9893 167.052 17.504C167.746 17.0187 168.222 16.3253 168.482 15.424H171.03C170.649 16.88 169.886 18.05 168.742 18.934C167.598 19.8007 166.168 20.234 164.452 20.234C163.1 20.234 161.896 19.9307 160.838 19.324C159.798 18.7173 158.984 17.8593 158.394 16.75C157.805 15.6407 157.51 14.3407 157.51 12.85ZM182.819 5.492C183.894 5.492 184.864 5.726 185.731 6.194C186.598 6.64467 187.274 7.32933 187.759 8.248C188.262 9.16667 188.513 10.2847 188.513 11.602V20H186.173V11.94C186.173 10.5187 185.818 9.43533 185.107 8.69C184.396 7.92733 183.426 7.546 182.195 7.546C180.947 7.546 179.95 7.936 179.205 8.716C178.477 9.496 178.113 10.6313 178.113 12.122V20H175.747V0.76H178.113V7.78C178.581 7.052 179.222 6.48867 180.037 6.09C180.869 5.69133 181.796 5.492 182.819 5.492ZM195.16 3.438C194.709 3.438 194.328 3.282 194.016 2.97C193.704 2.658 193.548 2.27667 193.548 1.826C193.548 1.37533 193.704 0.993999 194.016 0.681999C194.328 0.369999 194.709 0.213999 195.16 0.213999C195.593 0.213999 195.957 0.369999 196.252 0.681999C196.564 0.993999 196.72 1.37533 196.72 1.826C196.72 2.27667 196.564 2.658 196.252 2.97C195.957 3.282 195.593 3.438 195.16 3.438ZM196.304 5.752V20H193.938V5.752H196.304ZM201.012 12.85C201.012 11.3767 201.307 10.094 201.896 9.002C202.486 7.89267 203.3 7.03467 204.34 6.428C205.398 5.82133 206.602 5.518 207.954 5.518C209.705 5.518 211.144 5.94267 212.27 6.792C213.414 7.64133 214.168 8.82 214.532 10.328H211.984C211.742 9.46133 211.265 8.77667 210.554 8.274C209.861 7.77133 208.994 7.52 207.954 7.52C206.602 7.52 205.51 7.988 204.678 8.924C203.846 9.84267 203.43 11.1513 203.43 12.85C203.43 14.566 203.846 15.892 204.678 16.828C205.51 17.764 206.602 18.232 207.954 18.232C208.994 18.232 209.861 17.9893 210.554 17.504C211.248 17.0187 211.724 16.3253 211.984 15.424H214.532C214.151 16.88 213.388 18.05 212.244 18.934C211.1 19.8007 209.67 20.234 207.954 20.234C206.602 20.234 205.398 19.9307 204.34 19.324C203.3 18.7173 202.486 17.8593 201.896 16.75C201.307 15.6407 201.012 14.3407 201.012 12.85Z" fill="#F54251"/>
</svg>
